# xmcd
#
# Track frame offsets:
#	150
#	23620
#	41882
#	61945
#	95747
#	113964
#	134128
#	153455
#	160579
#	180889
#	200204
#	236645
#
# Disc length: 3469 seconds
#
# Revision: 1
# Processed by: cddbd v1.5.2PL0 Copyright (c) Steve Scherf et al.
# Submitted via: EZCDAudioConverter 7.1.0.1
#
DISCID=a40d8b0c
DTITLE=谭咏麟 - 银河岁月演唱会Live CD Disc3
DYEAR=2015
DGENRE=
TTITLE0=傲骨
TTITLE1=帮我欺骗我
TTITLE2=读爱
TTITLE3=Classical Medley Ⅰ：ⅰ.黄昏的声音 ⅱ.再见吧！浪漫 ⅲ.日落时分 ⅳ.还我真情
TTITLE4=在乎
TTITLE5=再等几天
TTITLE6=再见亦是泪
TTITLE7=朋友
TTITLE8=吻别
TTITLE9=还是你懂得爱我
TTITLE10=Classical Medley Ⅱ：ⅰ.情缘巴士站 ⅱ.柔柔河畔 ⅲ.喜爱 ⅳ.恋足100分
TTITLE11=无言感激
EXTD=
EXTT0=
EXTT1=
EXTT2=
EXTT3=
EXTT4=
EXTT5=
EXTT6=
EXTT7=
EXTT8=
EXTT9=
EXTT10=
EXTT11=
PLAYORDER=
